<svg width="44" height="45" viewBox="0 0 44 45" fill="none" xmlns="http://www.w3.org/2000/svg">
<path d="M22 0.166626C9.856 0.166626 0 10.0226 0 22.1666C0 34.3106 9.856 44.1666 22 44.1666C34.144 44.1666 44 34.3106 44 22.1666C44 10.0226 34.144 0.166626 22 0.166626ZM22 6.76663C25.652 6.76663 28.6 9.71463 28.6 13.3666C28.6 17.0186 25.652 19.9666 22 19.9666C18.348 19.9666 15.4 17.0186 15.4 13.3666C15.4 9.71463 18.348 6.76663 22 6.76663ZM22 38.0066C16.5 38.0066 11.638 35.1906 8.8 30.9226C8.866 26.5446 17.6 24.1466 22 24.1466C26.378 24.1466 35.134 26.5446 35.2 30.9226C32.362 35.1906 27.5 38.0066 22 38.0066Z" fill="#323232"/>
</svg>
