<svg xmlns="http://www.w3.org/2000/svg" viewBox="0 0 250 120"><path d="M71.8 15.8a1.9 1.9 0 01-.8-2.5 2.2 2.2 0 011.8.2l19.2 17-1.5 1.8a10 10 0 01-1-.7L75.4 19" fill="#fd914c"/><path d="M64.7 101c-2.8.7.5 3 0 0 .1-.4 0-.2 0 0 .1-.1.1-.3 0-.4v.3a.8.8 0 000 .1zM81.7 60.5l-.1.2zM81.8 60.3l-.1.2z" fill="#fe6b4b"/><path d="M59.1 82.1L60.4 97v.5H58l-1.2-15.2L59 82zM51.3 55.8c-4-11.2-8-22.3-11.8-33.5l-2.8-.7 9 25.3c1 2.8 3 8.3 4 11.5l.3.8 4.6 13 .4.8 2-1z" fill="#feab4d"/><path d="M54.5 72.3L46 63.8 38.3 56 20.9 38.7c-.5-.5-1.4-1-1.7-.8a2.6 2.6 0 00-1.2 1.7l-2.5 13.3L13.2 66l2.8-2 3-15.6 1.3-7 16.6 16.7 7.8 7.7 8.8 8.8L55 73zM86.3 47zM91 38L63 69c-.9 1-2 2.6-2.8 3.7a9.2 9.2 0 001.4 1.4L93 39.5z" fill="#fe4d4d"/><path d="M26.8 91.8z" fill="#fd914c"/><path d="M93 39.5l-.4.5-10.8 20.4c-3 6-6.5 11.8-9.6 17.7-3 6.5-6.7 12.8-10.1 19.1a5.5 5.5 0 102.2 1.7v-.2c4.1-8.6 8.8-17 13.3-25.3l11.4-21L95.4 40zM72.3 78zm0 0zm1.3.1h.3z" fill="#fe6b4b"/><path d="M73.9 28.3a5.5 5.5 0 00-2.7-5l1.4-6.8a2.2 2.2 0 00-.8-.6 1.9 1.9 0 01-.8-2.6C59.9 15 48.7 17 37.6 19a2 2 0 00-1.4.9c-.2.4.3 1 .5 1.6l2.8.7L62.9 28a5.5 5.5 0 003.5 5l-.5 1.9L57 71.9l2.6.4 9.1-38.8a5.5 5.5 0 004.4-2.6.8.8 0 01.5 0L90.2 35l.3-2.5-16.6-4.2zm-3.6-12.5l-1.6 6.6a.6.6 0 010 .2 5.5 5.5 0 00-5.2 3 .9.9 0 01-.4 0l-19.9-5z" fill="#fe4d4d"/><path d="M15.8 67.4l15.6-11c-.6-.7-1.5-1-2-1.7L16 64l-2.8 2a7 7 0 000 1.6L20 90.5l2.1-1-2.7-9.7-3.5-12.4zM109.5 76.1c-.2-.7.3.7 0 0 0-.1 0 .1 0 0s0 .1 0 0L98 39.4l-2.3.8c2.7 9.2 11 35.5 11 35.5l-43.7.2c-2.3 0 2.4 0 0 0a5.5 5.5 0 00-10.7 2.4L26.8 91.9l39.9-58.6-3.2-2.6-26.2 18.2L39 51c5.7-4.3 18-12.9 24-16.8l.3-.1-38.6 56.4 2.8 3.9 25.7-13.7a5.5 5.5 0 0010-2.3H108c1.4-.1 2-.8 1.5-2.2z" fill="#fd914c"/><circle cx="95.3" cy="34.8" r="5.5" fill="#feab4d"/><circle cx="34.4" cy="52.7" r="5.5" fill="#fe6b4b"/><path d="M45.9 98.3L28.2 95v-.1a5.5 5.5 0 10-.6 2.5l11 2 15.8 2.9.6-2.3-9.1-1.7z" fill="#feab4d"/><circle cx="68.4" cy="28.1" r="5.5" fill="#fe4d4d"/><path d="M63.4 45.7h20.1a3.1 3.1 0 00.7-.2l1 .4v4.3l-2.2.1H64.4V57h9.4l3.3.2h4v4l-.1.6H64.3V71l-.2 2.2h-1.9l-2-.1V45.7zM98 48v18.8a1.5 1.5 0 001.7 1.7h3.3v4.6a52.6 52.6 0 01-5.5 0 4.2 4.2 0 01-3.6-4.2V44.3a2.3 2.3 0 010-.4l2.9-.1 1.2.3zM87 50.6h2.8c.2.2.6.4.6.6v22h-4.2V57.4v-5.2c.3-.5-.4-1.6.8-1.6zM140.3 66.2h3.9l.1 1.2c.4.4 1 1.1 1.4 1.1h16.4a1.3 1.3 0 001.4-1.3V63c0-1-.9-1.3-1.8-1.3h-16.5c-2.6 0-4.5-1.3-4.9-3.4a13.9 13.9 0 01-.1-2.7V49a4.2 4.2 0 014-3.5h19.4a4.1 4.1 0 014 4v3h-4c-.2-2.2-.5-2.5-2.6-2.5h-14.5c-1.9 0-2.3.4-2.3 2.2v3c0 1.1.6 1.7 1.8 1.7H163a4.2 4.2 0 014.4 4.4v7.3a4 4 0 01-3.8 4.3l-7.4.1h-10.6c-3.3 0-6-1.6-5.5-5.5a14.7 14.7 0 000-1.4zM108.6 73.2h-2.4l-1.7-.1v-5l.2-6.2-.2-2.4v-8.8h28.3c2.8 0 4.5 1 5.1 3.2a3.7 3.7 0 01.2 1.1v17.6a3.9 3.9 0 010 .6H134v-16c0-1.4-.5-2-2-2h-6.4c-1.7 0-2.1.5-2.1 2.2v15.7h-4.2V72 57a1.5 1.5 0 00-1.6-1.7h-7.3q-1.7 0-1.7 1.9v14.7a12.4 12.4 0 010 1.3zM217.6 68.5v4.7H200.2c-3.3 0-5.5-2-5.4-5.4.2-4 .2-8 0-12 0-2.6 1.4-5.1 4.5-5.2h14a4.3 4.3 0 014.3 4.5v9H199v3c.1 1.3 1 1.4 2 1.4h15.1zm-4.2-8.8V57a1.5 1.5 0 00-1.6-1.7h-11.1c-.8 0-1.6.3-1.7 1.3v3zM192.9 64.2h-18.6v3c.1 1.1 1 1.4 1.9 1.4h16.6v4.6h-18a4.6 4.6 0 01-4.6-5c.2-4.1 0-8.4 0-12.6 0-3 1.5-4.8 4.5-5 4.7 0 9.5 0 14.2.2a4.1 4.1 0 013.9 3.8v9.6zm-18.6-4.6h14.4v-2.5a1.5 1.5 0 00-1.6-1.8h-11.2c-.8 0-1.5.3-1.6 1.3s0 2 0 3zM224.2 73.2H220v-4.8c0-4.2.1-8.5 0-12.8a4.6 4.6 0 014.3-4.9h13.2v4.5h-11.3c-1.5 0-2 .5-2 2v16zM88 48.5h-1.6l-.2-1.6a1 1 0 000-.2c.1-1-.2-2.1.3-2.7s1.7-.2 2.6-.2h1.3v4.6z"/><path fill="none" d="M0 0h250v120H0z"/></svg>